<!-- Save this as icons/icon.svg -->
<svg width="512" height="512" viewBox="0 0 512 512" xmlns="http://www.w3.org/2000/svg">
  <defs>
    <linearGradient id="bgGradient" x1="0%" y1="0%" x2="100%" y2="100%">
      <stop offset="0%" stop-color="#6366F1"/>
      <stop offset="100%" stop-color="#8B5CF6"/>
    </linearGradient>
    <filter id="shadow" x="-20%" y="-20%" width="140%" height="140%">
      <feDropShadow dx="0" dy="8" stdDeviation="12" flood-color="#6366F1" flood-opacity="0.3"/>
    </filter>
  </defs>
  
  <!-- Background Circle -->
  <circle cx="256" cy="256" r="240" fill="url(#bgGradient)" filter="url(#shadow)"/>
  
  <!-- Money Bag Body -->
  <path d="M256 160 C200 160, 160 220, 160 280 C160 340, 200 380, 256 380 C312 380, 352 340, 352 280 C352 220, 312 160, 256 160 Z" 
        fill="#FFFFFF" opacity="0.95"/>
  
  <!-- Money Bag Opening -->
  <path d="M200 160 C220 140, 292 140, 312 160 L312 180 C292 160, 220 160, 200 180 Z" 
        fill="#FFFFFF" opacity="0.8"/>
  
  <!-- Dollar Sign -->
  <path d="M256 220 L256 320 M236 240 L276 240 M236 300 L276 300" 
        stroke="#6366F1" stroke-width="12" stroke-linecap="round"/>
  
  <!-- Coins -->
  <circle cx="200" cy="260" r="16" fill="#10B981" opacity="0.8"/>
  <circle cx="312" cy="240" r="12" fill="#F59E0B" opacity="0.8"/>
  <circle cx="280" cy="320" r="14" fill="#EF4444" opacity="0.8"/>
  
  <!-- Shine Effect -->
  <circle cx="200" cy="200" r="40" fill="#FFFFFF" opacity="0.1"/>
</svg>
